Coordinates
version=1
nRows=24
nColumns=24
inDegrees=yes

Units are S.I. units (second, meters, Newtons, ...)
Angles are in degrees.

endheader
time	pelvis_tilt	pelvis_list	pelvis_rotation	pelvis_tx	pelvis_ty	pelvis_tz	hip_flexion_r	hip_adduction_r	hip_rotation_r	knee_angle_r	ankle_angle_r	subtalar_angle_r	mtp_angle_r	hip_flexion_l	hip_adduction_l	hip_rotation_l	knee_angle_l	ankle_angle_l	subtalar_angle_l	mtp_angle_l	lumbar_extension	lumbar_bending	lumbar_rotation
      4.50000000	     -2.00474671	      2.57700456	      3.85981767	      1.03418685	      0.67872719	     -0.30926631	     23.97781294	      1.73071817	      5.12645712	     -0.87165333	      6.72473358	    -12.67865104	      0.00000000	    -17.26387215	      5.85662885	     10.84826896	    -17.16674102	     15.06043697	     -1.77681730	      0.00000000	    -16.62698380	     -2.74284133	     -5.22217073
      4.51000000	     -1.97401265	      1.63276066	      3.13962465	      1.04936121	      0.67907161	     -0.30826297	     24.57472840	      3.31583505	      5.43538311	     -3.85006382	      5.81201029	    -12.92365670	      0.00000000	    -15.96757138	      4.86349043	      7.60008897	    -21.04668227	     13.09647723	      0.48238482	      0.00000000	    -16.35634924	     -1.49861865	     -4.32255096
      4.52000000	     -2.04523619	      0.61045681	      2.53976687	      1.06439453	      0.67953665	     -0.30737049	     25.27144491	      4.91052919	      5.41050824	     -7.00366666	      4.93989174	    -12.94569131	      0.00000000	    -14.15374213	      3.64068759	      4.64022848	    -25.43285632	     10.55842915	      2.24414039	      0.00000000	    -15.99353624	     -0.13076348	     -3.61758121
      4.53000000	     -2.18009222	     -0.39124650	      1.89238809	      1.07927120	      0.68004461	     -0.30652869	     25.96074893	      6.45382711	      5.34578040	    -10.12363258	      4.23978685	    -12.76061858	      0.00000000	    -12.02489692	      2.40055601	      2.24002345	    -30.01793747	      7.22039143	      3.01348266	      0.00000000	    -15.59163260	      1.22721318	     -2.93959410
      4.54000000	     -2.40833102	     -1.30859481	      1.34661697	      1.09381158	      0.68050094	     -0.30589616	     26.56965674	      7.81618575	      5.34864880	    -12.95792223	      3.80201951	    -12.56526605	      0.00000000	     -9.49812312	      1.21446492	      0.48177956	    -34.80863196	      3.38937494	      2.83198571	      0.00000000	    -15.15939498	      2.50764498	     -2.43779571
      4.55000000	     -2.45816865	     -2.33140587	      0.90502758	      1.10836856	      0.68124560	     -0.30541331	     26.62765317	      9.21405194	      5.45345022	    -15.18265195	      3.55674661	    -12.58789559	      0.00000000	     -7.02080961	     -0.11790594	     -0.71665893	    -39.55212520	     -0.46086572	      2.29209434	      0.00000000	    -14.93351718	      3.94330669	     -2.02166529
      4.56000000	     -2.69953797	     -3.22484216	      0.55401362	      1.12235141	      0.68172537	     -0.30494160	     26.67575266	     10.43727382	      5.68893049	    -16.96181268	      3.58738978	    -12.82404924	      0.00000000	     -4.06117897	     -1.31483772	     -1.47786049	    -44.37417003	     -3.79768287	      1.34995712	      0.00000000	    -14.60624853	      5.17111182	     -1.75734602
      4.57000000	     -2.94942870	     -4.16679077	      0.29337878	      1.13614603	      0.68224101	     -0.30456329	     26.39233042	     11.65522411	      5.97697399	    -18.11024268	      3.89936990	    -13.19289434	      0.00000000	     -0.96862162	     -2.53257408	     -1.83092472	    -49.04978440	     -6.25142950	      0.33924430	      0.00000000	    -14.28248484	      6.45116128	     -1.52022346
      4.58000000	     -3.25983124	     -5.10024818	      0.08670078	      1.14971327	      0.68278573	     -0.30419852	     25.84478083	     12.82749887	      6.36315008	    -18.65212647	      4.44370105	    -13.63724727	      0.00000000	      2.27758342	     -3.68875732	     -1.87249250	    -53.48248799	     -7.62821828	     -0.70284852	      0.00000000	    -13.90090806	      7.68294161	     -1.26828277
      4.59000000	     -3.55358855	     -6.00043587	     -0.10594444	      1.16309578	      0.68351906	     -0.30384732	     24.97397181	     13.93805737	      6.84911670	    -18.65018660	      5.15697486	    -14.10466415	      0.00000000	      5.51840614	     -4.73480632	     -1.69905575	    -57.53051472	     -7.86566673	     -1.75905812	      0.00000000	    -13.55364060	      8.85114745	     -0.98126183
      4.60000000	     -3.80084023	     -6.80484295	     -0.32945834	      1.17633321	      0.68456292	     -0.30343857	     23.76347158	     14.92783153	      7.42792842	    -18.15120166	      5.94078344	    -14.47681780	      0.00000000	      8.65782163	     -5.62185541	     -1.44392540	    -61.07140962	     -7.05564583	     -2.79463660	      0.00000000	    -13.27454946	      9.85261344	     -0.59888268
      4.61000000	     -3.99536520	     -7.45869524	     -0.61298769	      1.18946971	      0.68595883	     -0.30294221	     22.24910498	     15.74221312	      8.14720864	    -17.26238412	      6.73524588	    -14.68301105	      0.00000000	     11.64047073	     -6.31154959	     -1.19130950	    -64.02170653	     -5.46685558	     -3.74376941	      0.00000000	    -13.06816713	     10.63057587	     -0.17813422
      4.62000000	     -4.11154554	     -7.90814549	     -0.93795325	      1.20258841	      0.68773923	     -0.30241940	     20.44604156	     16.30314793	      8.94659854	    -16.06562283	      7.50218949	    -14.71205425	      0.00000000	     14.38487028	     -6.74316934	     -0.96503860	    -66.30177715	     -3.32510474	     -4.64178536	      0.00000000	    -12.93880845	     11.13521401	      0.34348691
      4.63000000	     -4.17680816	     -8.14657488	     -1.32246875	      1.21557338	      0.68978187	     -0.30185323	     18.48579353	     16.60573933	      9.85237858	    -14.72923443	      8.19865284	    -14.52367103	      0.00000000	     16.93798970	     -6.94681857	     -0.83615896	    -67.94812320	     -0.97691961	     -5.49284512	      0.00000000	    -12.90839564	     11.36898615	      0.90885072
      4.64000000	     -4.26264224	     -8.09202743	     -1.73159432	      1.22857667	      0.69191834	     -0.30122615	     16.47045461	     16.56378350	     10.92550617	    -13.29350912	      8.85213930	    -14.33373759	      0.00000000	     19.33170585	     -6.84293690	     -0.79755207	    -68.93707362	      1.57716208	     -6.07978019	      0.00000000	    -12.80416254	     11.22577678	      1.37451236
      4.65000000	     -4.34131332	     -7.81781934	     -2.16018546	      1.24151116	      0.69408528	     -0.30057929	     14.45984501	     16.25053325	     12.03582822	    -11.86353341	      9.36604453	    -14.17911816	      0.00000000	     21.55051555	     -6.52688012	     -0.87331145	    -69.30687254	      4.01153136	     -6.63597351	      0.00000000	    -12.71416675	     10.81035379	      1.84682236
      4.66000000	     -4.42126571	     -7.38708783	     -2.63983273	      1.25434881	      0.69613783	     -0.29987193	     12.50455496	     15.74867600	     13.25281273	    -10.50036106	      9.75895462	    -14.13482188	      0.00000000	     23.60804835	     -6.10769728	     -1.10508352	    -69.12388642	      6.27264478	     -7.11125327	      0.00000000	    -12.64836514	     10.20332091	      2.34033480
      4.67000000	     -4.46174844	     -6.85890613	     -3.15762488	      1.26703532	      0.69798578	     -0.29907031	     10.56810185	     15.12694064	     14.74235220	     -9.19933804	     10.01474160	    -14.45756540	      0.00000000	     25.47691682	     -5.66478287	     -1.47723289	    -68.44840321	      8.32083987	     -7.51467503	      0.00000000	    -12.68778807	      9.46015566	      2.80551920
      4.68000000	     -4.56503749	     -6.20328758	     -3.71345524	      1.27967887	      0.69957399	     -0.29827801	      8.80631655	     14.34071097	     16.09414980	     -8.01532375	     10.27533777	    -14.72350789	      0.00000000	     27.21986427	     -5.14357056	     -1.97818700	    -67.21909559	      9.99401823	     -7.94308527	      0.00000000	    -12.64738419	      8.57046864	      3.27305414
      4.69000000	     -4.58264831	     -5.53872009	     -4.21470032	      1.29222921	      0.70094620	     -0.29758438	      6.98464789	     13.49013638	     17.65338941	     -6.80334453	     10.27874914	    -15.49830807	      0.00000000	     28.71448278	     -4.60529926	     -2.43888352	    -65.52711047	     11.34611271	     -8.31032279	      0.00000000	    -12.76755154	      7.68369791	      3.63747430
      4.70000000	     -4.80910061	     -4.89605535	     -4.86062150	      1.30452414	      0.70171599	     -0.29678430	      5.63691325	     12.70395494	     18.71697028	     -5.96560394	     10.73527996	    -15.56738234	      0.00000000	     30.27108381	     -4.21668080	     -3.06080661	    -63.40513353	     12.41285448	     -8.73135637	      0.00000000	    -12.71408047	      6.83130011	      4.14280752
      4.71000000	     -5.00166584	     -4.32444867	     -5.49511313	      1.31678419	      0.70222089	     -0.29607160	      4.30731840	     11.96197565	     19.78009951	     -5.18102974	     11.10657576	    -15.72780588	      0.00000000	     31.58846395	     -3.90591087	     -3.63495615	    -60.81546954	     13.12532233	     -9.14590602	      0.00000000	    -12.73605453	      6.08024844	      4.62945482
      4.72000000	     -5.16001325	     -3.85695074	     -6.13216287	      1.32900182	      0.70238109	     -0.29535308	      2.99965014	     11.32075011	     20.80674822	     -4.47288555	     11.49744985	    -16.01310167	      0.00000000	     32.67006215	     -3.74781680	     -4.23901046	    -57.79356711	     13.52514442	     -9.68941833	      0.00000000	    -12.83161990	      5.45822538	      5.06663129
      4.73000000	     -5.35808887	     -3.49973449	     -6.74077194	      1.34121908	      0.70216939	     -0.29473682	      1.78924006	     10.78300333	     21.68684055	     -3.84797657	     11.90375256	    -16.21818650	      0.00000000	     33.57493712	     -3.67761991	     -4.74346572	    -54.33051406	     13.62291995	    -10.29908084	      0.00000000	    -12.90141026	      4.99227426	      5.42986215
